<svg width="181" height="103" viewBox="0 0 181 103" fill="none" xmlns="http://www.w3.org/2000/svg">
<path fill-rule="evenodd" clip-rule="evenodd" d="M136.701 25.3597L154.811 43.4698C155.202 43.8604 155.202 44.4935 154.811 44.8841L128 71.6954V32.6467L135.287 25.3597C135.678 24.9692 136.311 24.9692 136.701 25.3597ZM128 24.2438L133.214 19.0301C133.996 18.2474 134.923 17.8561 135.994 17.8561C137.065 17.8561 137.992 18.2474 138.775 19.0301L161.141 41.3966C161.883 42.138 162.253 43.0648 162.253 44.177C162.253 45.2891 161.883 46.2159 161.141 46.9573L128 80.0983V90.4344H133.222C149.6 74.0387 177.823 45.7834 177.823 45.7834C179.347 44.2593 180.109 42.3955 180.109 40.1918C180.109 37.9881 179.347 36.1242 177.823 34.6001L170.1 26.8769C167.793 29.1836 164.992 30.3369 161.697 30.3369C158.402 30.3369 155.601 29.1836 153.294 26.8769C150.988 24.5702 149.834 21.7693 149.834 18.474C149.834 15.1788 150.988 12.3778 153.294 10.0711L145.571 2.28607C144.047 0.762018 142.183 0 139.979 0C137.776 0 135.912 0.762018 134.388 2.28607L128.436 8.23169C128.454 8.30594 128.464 8.38358 128.464 8.46349C128.464 8.81255 128.278 9.11826 128 9.2873V24.2438ZM76.0002 63.8561V63.9791C76.0001 63.9586 76 63.9381 76 63.9176C76 63.897 76.0001 63.8765 76.0002 63.8561Z" fill="#7958CE"/>
<path d="M144.865 78.7664C145.224 78.4062 144.914 77.7965 144.411 77.8756L128.444 80.3876C128.188 80.4278 128 80.6482 128 80.907V94.3982C128 94.8669 128.567 95.1013 128.898 94.7695L144.865 78.7664Z" fill="#7958CE"/>
<path d="M129.93 8.93093C130.245 8.11507 129.222 7.44896 128.603 8.06649L128.238 8.43044C128.086 8.58249 128 8.78899 128 9.00429L128.001 9.58583C128.001 10.4828 129.243 10.7134 129.566 9.87641L129.93 8.93093Z" fill="#7958CE"/>
<path d="M121.2 14.7279C121.2 14.444 121.313 14.1718 121.514 13.971L124.569 10.9143C124.906 10.577 125.483 10.8158 125.483 11.2927V94.8C125.483 95.1866 125.169 95.5 124.783 95.5H121.9C121.514 95.5 121.2 95.1866 121.2 94.8V14.7279Z" fill="#7958CE" fill-opacity="0.5"/>
<path d="M3.14041 39.5V6.04545H25.683V11.8771H10.2136V19.8487H24.5232V25.6804H10.2136V33.6683H25.7484V39.5H3.14041ZM36.2945 6.04545V39.5H29.3357V6.04545H36.2945ZM38.8855 11.8771V6.04545H66.3613V11.8771H56.1191V39.5H49.1277V11.8771H38.8855ZM76.7115 39.9901C74.1305 39.9901 71.9089 39.4673 70.0467 38.4219C68.1954 37.3655 66.7688 35.8736 65.7669 33.946C64.765 32.0076 64.264 29.7152 64.264 27.0689C64.264 24.4879 64.765 22.2228 65.7669 20.2734C66.7688 18.3241 68.1791 16.8049 69.9977 15.7159C71.8273 14.6269 73.9726 14.0824 76.4338 14.0824C78.0891 14.0824 79.6301 14.3492 81.0567 14.8828C82.4942 15.4055 83.7465 16.1951 84.8138 17.2514C85.8919 18.3078 86.7304 19.6364 87.3294 21.2372C87.9283 22.8272 88.2278 24.6894 88.2278 26.8239V28.7351H67.041V24.4226H81.6774C81.6774 23.4207 81.4596 22.5331 81.024 21.7599C80.5884 20.9867 79.984 20.3823 79.2108 19.9467C78.4485 19.5002 77.5609 19.277 76.5481 19.277C75.4918 19.277 74.5552 19.522 73.7385 20.0121C72.9326 20.4912 72.301 21.1392 71.8436 21.956C71.3862 22.7618 71.1521 23.6603 71.1412 24.6513V28.7514C71.1412 29.9929 71.3699 31.0656 71.8273 31.9695C72.2955 32.8733 72.9544 33.5703 73.8038 34.0604C74.6533 34.5504 75.6606 34.7955 76.8258 34.7955C77.599 34.7955 78.3069 34.6866 78.9494 34.4688C79.5919 34.2509 80.1419 33.9242 80.5993 33.4886C81.0567 33.053 81.4051 32.5194 81.6447 31.8878L88.0808 32.3125C87.7541 33.8589 87.0844 35.2093 86.0716 36.3636C85.0697 37.5071 83.7738 38.4001 82.1838 39.0426C80.6047 39.6742 78.7806 39.9901 76.7115 39.9901ZM107.019 28.8168V14.4091H113.978V39.5H107.297V34.9425H107.036C106.469 36.4126 105.527 37.5942 104.21 38.4872C102.903 39.3802 101.307 39.8267 99.4233 39.8267C97.7463 39.8267 96.2706 39.4455 94.9965 38.6832C93.7223 37.9209 92.7259 36.8374 92.0071 35.4325C91.2993 34.0277 90.9399 32.3452 90.929 30.3849V14.4091H97.8878V29.1435C97.8987 30.6245 98.2962 31.7952 99.0803 32.6555C99.8644 33.5159 100.915 33.946 102.233 33.946C103.072 33.946 103.856 33.7554 104.585 33.3743C105.315 32.9822 105.903 32.4051 106.349 31.6428C106.807 30.8804 107.03 29.9384 107.019 28.8168Z" fill="#FCFCFC"/>
<path d="M2.9951 61.4091V51.8636H40.9212V61.4091H27.7962V95.5H16.1201V61.4091H2.9951ZM43.7501 95.5V62.7727H55.5115V95.5H43.7501ZM49.6308 59.3636C48.0399 59.3636 46.6763 58.8381 45.5399 57.7869C44.4036 56.7358 43.8354 55.4716 43.8354 53.9943C43.8354 52.517 44.4036 51.2528 45.5399 50.2017C46.6763 49.1506 48.0399 48.625 49.6308 48.625C51.2359 48.625 52.5996 49.1506 53.7217 50.2017C54.8581 51.2528 55.4263 52.517 55.4263 53.9943C55.4263 55.4716 54.8581 56.7358 53.7217 57.7869C52.5996 58.8381 51.2359 59.3636 49.6308 59.3636ZM70.2722 87.7443L70.3575 73.767H71.8916L79.8177 62.7727H93.0279L79.7325 79.9034H76.4086L70.2722 87.7443ZM59.7041 95.5V51.8636H71.4654V95.5H59.7041ZM79.9029 95.5L72.4029 82.5455L80.0734 74.1932L93.3688 95.5H79.9029ZM113.808 62.7727V71.2955H92.2453V62.7727H113.808ZM96.4215 54.9318H108.183V84.9744C108.183 85.429 108.261 85.8125 108.417 86.125C108.573 86.4233 108.815 86.6506 109.142 86.8068C109.468 86.9489 109.887 87.0199 110.399 87.0199C110.754 87.0199 111.166 86.9773 111.635 86.892C112.117 86.8068 112.473 86.7358 112.7 86.679L114.404 94.946C113.879 95.1023 113.126 95.294 112.146 95.5213C111.18 95.7486 110.029 95.8977 108.694 95.9688C105.995 96.1108 103.73 95.8338 101.897 95.1378C100.065 94.4276 98.6871 93.3125 97.7638 91.7926C96.8405 90.2727 96.393 88.3693 96.4215 86.0824V54.9318Z" fill="#7958CE"/>
</svg>
