<svg width="326" height="103" viewBox="0 0 326 103" fill="none" xmlns="http://www.w3.org/2000/svg">
<path fill-rule="evenodd" clip-rule="evenodd" d="M30.7649 43.4119C30.3521 43.7075 30.257 44.2818 30.5526 44.6946L50.7871 72.9584L56.6508 37.5384L51.1934 29.9158C50.8979 29.5029 50.3236 29.4079 49.9108 29.7035L30.7649 43.4119ZM57.9121 29.9197L54.0238 24.4886C53.4315 23.6613 52.6497 23.1672 51.6783 23.0064C50.707 22.8456 49.8077 23.0614 48.9804 23.6537L25.3362 40.5813C24.5524 41.1424 24.077 41.9273 23.91 42.936C23.743 43.9447 23.9401 44.841 24.5012 45.6247L49.5256 80.5784L47.9621 90.0227L43.2954 89.2501C30.903 71.9205 9.54712 42.0552 9.54712 42.0552C8.39367 40.4441 7.98239 38.6392 8.31327 36.6405C8.64416 34.6418 9.61515 33.0657 11.2263 31.9123L19.3907 26.0671C21.1365 28.5055 23.5037 29.9721 26.4924 30.4669C29.4811 30.9617 32.1947 30.3362 34.6331 28.5905C37.0716 26.8447 38.5382 24.4775 39.033 21.4888C39.5278 18.5 38.9023 15.7865 37.1565 13.348L45.3302 7.44681C46.9413 6.29336 48.7462 5.88209 50.745 6.21297C52.7437 6.54386 54.3197 7.51485 55.4732 9.12596L59.7525 15.0963C59.5122 15.2202 59.3314 15.4521 59.2838 15.7393C59.2039 16.222 59.5304 16.678 60.0131 16.7579L60.0889 16.7705L57.9121 29.9197ZM99.1811 73.7569L99.1698 73.8253C99.1717 73.8139 99.1737 73.8025 99.1755 73.7911C99.1774 73.7797 99.1793 73.7683 99.1811 73.7569Z" fill="#7958CE"/>
<path d="M34.3995 76.8064C34.13 76.4301 34.4926 75.9267 34.9349 76.063L49.1266 80.4379C49.3578 80.5092 49.5007 80.7403 49.4611 80.9789L47.3819 93.5188C47.3115 93.9435 46.7627 94.0712 46.512 93.7211L34.3995 76.8064Z" fill="#7958CE"/>
<path d="M58.4196 15.6907C58.2508 14.9014 59.283 14.4454 59.7529 15.1017L60.074 15.5502C60.1889 15.7107 60.2353 15.9103 60.2031 16.1051L60.1048 16.6986C59.9706 17.5096 58.8144 17.5365 58.6425 16.7327L58.4196 15.6907Z" fill="#7958CE"/>
<path d="M64.712 22.4299C64.7507 22.1962 64.7037 21.9563 64.5798 21.7544L62.7658 18.7986C62.5276 18.4105 61.9352 18.5263 61.8609 18.9757L49.4562 93.9063C49.3981 94.257 49.6353 94.5883 49.9859 94.6463L52.0478 94.9877C52.3985 95.0457 52.7298 94.8085 52.7878 94.4579L64.712 22.4299Z" fill="#7958CE" fill-opacity="0.65"/>
<path d="M129.732 22.2727L117.658 95H101.181L81.2945 56.7898H80.8683L74.4763 95H54.732L66.8058 22.2727H83.5672L103.169 60.3409H103.738L109.988 22.2727H129.732ZM145.418 95.9943C139.499 95.9943 134.623 94.8224 130.787 92.4787C126.976 90.1113 124.301 86.8205 122.762 82.6065C121.223 78.3688 120.915 73.4564 121.839 67.8693C122.762 62.2822 124.691 57.3816 127.627 53.1676C130.562 48.9299 134.339 45.6392 138.955 43.2955C143.571 40.928 148.851 39.7443 154.793 39.7443C160.688 39.7443 165.541 40.928 169.353 43.2955C173.188 45.6392 175.875 48.9299 177.414 53.1676C178.976 57.3816 179.296 62.2822 178.373 67.8693C177.449 73.4564 175.508 78.3688 172.549 82.6065C169.589 86.8205 165.802 90.1113 161.185 92.4787C156.592 94.8224 151.337 95.9943 145.418 95.9943ZM147.833 81.5057C149.537 81.5057 151.088 80.9493 152.485 79.8366C153.905 78.724 155.113 77.1378 156.107 75.0781C157.125 73.0185 157.871 70.5682 158.344 67.7273C158.818 64.8627 158.889 62.4124 158.557 60.3764C158.226 58.3168 157.539 56.7306 156.498 55.6179C155.456 54.5052 154.083 53.9489 152.378 53.9489C150.674 53.9489 149.111 54.5052 147.691 55.6179C146.27 56.7306 145.063 58.3168 144.069 60.3764C143.074 62.4124 142.34 64.8627 141.867 67.7273C141.393 70.5682 141.311 73.0185 141.618 75.0781C141.95 77.1378 142.636 78.724 143.678 79.8366C144.743 80.9493 146.128 81.5057 147.833 81.5057ZM173.482 95L182.573 40.4545H201.607L199.902 50.8239H200.47C202.104 46.9886 204.152 44.1832 206.614 42.4077C209.076 40.6321 211.763 39.7443 214.675 39.7443C215.527 39.7443 216.344 39.8153 217.125 39.9574C217.93 40.0758 218.723 40.2415 219.504 40.4545L216.664 57.2159C215.74 56.8608 214.592 56.6122 213.219 56.4702C211.846 56.3045 210.627 56.2216 209.561 56.2216C207.667 56.2216 205.892 56.6596 204.235 57.5355C202.601 58.3878 201.204 59.5952 200.044 61.1577C198.908 62.6965 198.15 64.5076 197.771 66.5909L193.084 95H173.482ZM229.389 95.7102C225.507 95.7102 222.098 94.6922 219.162 92.6562C216.25 90.6203 214.155 87.5308 212.877 83.3878C211.622 79.2448 211.515 74.0246 212.557 67.7273C213.646 61.1458 215.552 55.7955 218.274 51.6761C221.021 47.5568 224.169 44.5384 227.72 42.6207C231.295 40.7031 234.882 39.7443 238.48 39.7443C241.179 39.7443 243.464 40.2178 245.334 41.1648C247.228 42.0881 248.731 43.331 249.844 44.8935C250.957 46.4323 251.714 48.125 252.117 49.9716H252.401L257.017 22.2727H276.619L264.546 95H245.085L246.577 86.0511H246.151C245.085 87.8977 243.724 89.5549 242.067 91.0227C240.433 92.4669 238.551 93.6151 236.421 94.4673C234.29 95.2959 231.946 95.7102 229.389 95.7102ZM239.119 80.6534C240.919 80.6534 242.552 80.1326 244.02 79.0909C245.488 78.0256 246.731 76.5341 247.749 74.6165C248.767 72.6752 249.489 70.3788 249.915 67.7273C250.365 65.0284 250.4 62.7202 250.021 60.8026C249.643 58.8613 248.885 57.3816 247.749 56.3636C246.636 55.322 245.18 54.8011 243.381 54.8011C241.582 54.8011 239.96 55.322 238.516 56.3636C237.072 57.3816 235.852 58.8613 234.858 60.8026C233.887 62.7202 233.177 65.0284 232.727 67.7273C232.278 70.4261 232.218 72.7462 232.55 74.6875C232.905 76.6051 233.639 78.0848 234.752 79.1264C235.864 80.1444 237.32 80.6534 239.119 80.6534ZM281.726 95.8523C278.27 95.8523 275.298 95.2841 272.813 94.1477C270.351 92.9877 268.551 91.2358 267.415 88.892C266.302 86.5246 266.054 83.5417 266.669 79.9432C267.166 76.9602 268.101 74.4152 269.475 72.3082C270.848 70.2012 272.552 68.473 274.588 67.1236C276.624 65.7741 278.909 64.7443 281.442 64.0341C283.999 63.3002 286.698 62.8267 289.539 62.6136C292.616 62.3769 295.114 62.081 297.031 61.7259C298.949 61.3707 300.381 60.8854 301.328 60.2699C302.275 59.6544 302.843 58.8258 303.033 57.7841V57.642C303.246 56.2216 302.867 55.1326 301.896 54.375C300.949 53.6174 299.624 53.2386 297.919 53.2386C296.073 53.2386 294.475 53.6411 293.125 54.446C291.799 55.2509 290.888 56.5057 290.391 58.2102H272.351C273.109 54.8958 274.659 51.8419 277.003 49.0483C279.37 46.2311 282.507 43.982 286.414 42.3011C290.343 40.5966 295.031 39.7443 300.476 39.7443C304.359 39.7443 307.768 40.206 310.703 41.1293C313.639 42.0289 316.066 43.2955 317.983 44.929C319.924 46.5388 321.286 48.4328 322.067 50.6108C322.872 52.7652 323.061 55.1089 322.635 57.642L316.385 95H298.061L299.34 87.3295H298.914C297.493 89.3655 295.895 91.0109 294.119 92.2656C292.368 93.5204 290.45 94.4318 288.367 95C286.307 95.5682 284.093 95.8523 281.726 95.8523ZM290.249 83.4943C291.717 83.4943 293.161 83.1866 294.581 82.571C296.002 81.9555 297.221 81.0677 298.239 79.9077C299.257 78.7476 299.908 77.339 300.192 75.6818L300.902 71.1364C300.381 71.3494 299.801 71.5507 299.162 71.7401C298.547 71.9058 297.896 72.0715 297.209 72.2372C296.546 72.4029 295.836 72.5568 295.078 72.6989C294.344 72.8409 293.587 72.983 292.806 73.125C291.243 73.3617 289.929 73.7524 288.864 74.2969C287.798 74.8177 286.97 75.4688 286.378 76.25C285.786 77.0076 285.419 77.8598 285.277 78.8068C285.064 80.2983 285.407 81.4583 286.307 82.2869C287.23 83.0919 288.544 83.4943 290.249 83.4943Z" fill="#EAE6F2"/>
</svg>
