<svg width="1024" height="1024" viewBox="0 0 1024 1024" fill="none" xmlns="http://www.w3.org/2000/svg">
<g clip-path="url(#clip0_490_750)">
<path fill-rule="evenodd" clip-rule="evenodd" d="M585.288 333.723L441.232 477.78C438.125 480.886 438.125 485.923 441.232 489.029L654.502 702.299V391.687L596.538 333.723C593.431 330.617 588.395 330.617 585.288 333.723ZM654.502 324.847L613.029 283.374C606.804 277.149 599.432 274.036 590.913 274.036C582.394 274.036 575.022 277.149 568.797 283.374L390.883 461.288C384.985 467.186 382.036 474.558 382.036 483.404C382.036 492.251 384.985 499.623 390.883 505.521L654.502 769.14V851.358H612.963C482.686 720.939 258.185 496.183 258.185 496.183C246.062 484.06 240 469.234 240 451.704C240 434.175 246.062 419.349 258.185 407.226L319.619 345.791C337.967 364.14 360.247 373.314 386.459 373.314C412.671 373.314 434.952 364.14 453.3 345.791C471.648 327.443 480.823 305.163 480.823 278.951C480.823 252.739 471.648 230.459 453.3 212.11L514.734 150.184C526.857 138.061 541.684 132 559.213 132C576.742 132 591.568 138.061 603.691 150.184L651.038 197.479C650.892 198.069 650.814 198.687 650.814 199.323C650.814 202.099 652.291 204.531 654.502 205.876V324.847ZM1068.13 639.949V640.912C1068.13 640.751 1068.13 640.591 1068.13 640.43C1068.13 640.27 1068.13 640.11 1068.13 639.949Z" fill="#7958CE"/>
<path d="M520.349 758.544C517.491 755.679 519.962 750.829 523.96 751.458L650.969 771.44C653.003 771.76 654.502 773.513 654.502 775.572V882.886C654.502 886.615 649.992 888.48 647.358 885.841L520.349 758.544Z" fill="#7958CE"/>
<path d="M639.147 203.039C636.645 196.55 644.782 191.251 649.706 196.163L652.608 199.058C653.82 200.268 654.501 201.91 654.5 203.623L654.496 208.249C654.491 215.384 644.611 217.218 642.045 210.56L639.147 203.039Z" fill="#7958CE"/>
<path d="M708.592 249.151C708.592 246.893 707.695 244.727 706.099 243.13L681.797 218.816C679.115 216.132 674.528 218.032 674.528 221.826V886.082C674.528 889.157 677.021 891.65 680.096 891.65H703.024C706.099 891.65 708.592 889.157 708.592 886.082V249.151Z" fill="#7958CE" fill-opacity="0.5"/>
</g>
<defs>
<clipPath id="clip0_490_750">
<rect width="1024" height="1024" fill="white"/>
</clipPath>
</defs>
</svg>
