<svg width="1024" height="1024" viewBox="0 0 1024 1024" fill="none" xmlns="http://www.w3.org/2000/svg">
<g clip-path="url(#clip0_50_16)">
<path fill-rule="evenodd" clip-rule="evenodd" d="M450.842 333.723L594.898 477.78C598.005 480.886 598.005 485.923 594.898 489.029L381.628 702.299V391.687L439.592 333.723C442.699 330.617 447.735 330.617 450.842 333.723ZM381.628 324.847L423.101 283.374C429.326 277.149 436.698 274.036 445.217 274.036C453.736 274.036 461.108 277.149 467.333 283.374L645.247 461.288C651.145 467.186 654.094 474.558 654.094 483.404C654.094 492.251 651.145 499.623 645.247 505.521L381.628 769.14V851.358H423.167C553.444 720.939 777.945 496.183 777.945 496.183C790.068 484.06 796.13 469.234 796.13 451.704C796.13 434.175 790.068 419.349 777.945 407.226L716.511 345.791C698.163 364.14 675.882 373.314 649.67 373.314C623.458 373.314 601.178 364.14 582.83 345.791C564.482 327.443 555.307 305.163 555.307 278.951C555.307 252.739 564.482 230.459 582.83 212.11L521.396 150.184C509.273 138.061 494.446 132 476.917 132C459.388 132 444.562 138.061 432.439 150.184L385.092 197.479C385.238 198.069 385.315 198.687 385.315 199.323C385.315 202.099 383.839 204.531 381.628 205.876V324.847ZM-32.0034 639.949V640.912C-32.0044 640.751 -32.0049 640.591 -32.0049 640.431C-32.0049 640.27 -32.0044 640.11 -32.0034 639.949Z" fill="#7958CE"/>
<path d="M515.781 758.544C518.639 755.679 516.168 750.829 512.17 751.458L385.161 771.44C383.127 771.76 381.628 773.512 381.628 775.571V882.886C381.628 886.615 386.138 888.48 388.771 885.84L515.781 758.544Z" fill="#7958CE"/>
<path d="M396.983 203.04C399.484 196.551 391.348 191.252 386.424 196.164L383.522 199.059C382.31 200.269 381.629 201.911 381.63 203.624L381.633 208.25C381.639 215.385 391.519 217.219 394.085 210.561L396.983 203.04Z" fill="#7958CE"/>
<path d="M327.538 249.152C327.538 246.894 328.434 244.729 330.031 243.132L354.332 218.817C357.014 216.134 361.602 218.033 361.602 221.827V886.084C361.602 889.159 359.109 891.652 356.034 891.652H333.106C330.031 891.652 327.538 889.159 327.538 886.084V249.152Z" fill="#7958CE" fill-opacity="0.5"/>
</g>
<defs>
<clipPath id="clip0_50_16">
<rect width="1024" height="1024" fill="white"/>
</clipPath>
</defs>
</svg>
